<?xml version="1.0"?>
<svg xmlns="http://www.w3.org/2000/svg" height="512px" viewBox="-17 0 511 511.96511" width="512px" class=""><g><path d="m468.65625 225.84375c-7.597656 137.042969-150.957031 246.613281-277.675781 274.261719l-4.863281 1.023437c-4.097657.765625-8.191407 1.535156-12.289063 2.21875-4.019531.476563-7.839844-1.878906-9.222656-5.679687-1.382813-3.804688.03125-8.0625 3.417969-10.277344 61.441406-40.875 146.261718-88.492187 182.699218-153.429687 31.0625-55.125 47.703125-126.378907 10.496094-182.957032-15.023438-21.339844-36.316406-37.476562-60.925781-46.164062-17.1875-6.300782-35.0625-10.539063-53.25-12.628906 2.074219-18.785157 10.539062-36.289063 23.980469-49.578126 17.152343-16.214843 40.703124-22.101562 64.339843-25.089843-2.132812-.425781-4.351562-.765625-6.484375-1.109375-1.964844-.339844-4.011718-.597656-5.972656-.851563 13.484375 1.210938 26.699219 4.523438 39.167969 9.8125 54.015625 23.039063 89.34375 77.996094 101.289062 133.546875 4.785157 21.957032 6.5625 44.464844 5.292969 66.902344zm0 0" fill="#00838f" data-original="#00838F" class="" style="fill:#00838F"/><path d="m9.058594 374.46875c2.003906 13.558594 20.34375 17.066406 31.128906 18.855469 18.910156 2.785156 37.972656 4.441406 57.078125 4.960937 50.5625 2.09375 101.210937.054688 151.441406-6.101562.671875-.078125 1.320313-.308594 1.894531-.667969 27-16.585937 49.464844-39.601563 65.390626-66.992187.699218-1.308594.699218-2.878907.007812-4.191407-.691406-1.308593-1.988281-2.191406-3.460938-2.355469-38.351562-2.410156-76.835937-1.523437-115.03125 2.644532-107.078124 8.96875-191.511718 33.101562-188.449218 53.847656zm0 0" fill="#e91e63" data-original="#E91E63" class="" style="fill:#F0F078" data-old_color="#E91E63"/><path d="m303.449219 343.6875c-14.613281 18.953125-32.503907 35.140625-52.820313 47.785156-.5625.378906-1.207031.609375-1.878906.683594-50.238281 6.140625-100.894531 8.195312-151.464844 6.144531-19.109375-.535156-38.171875-2.1875-57.089844-4.949219-10.667968-1.792968-28.925781-5.289062-31.0625-18.6875zm0 0" fill="#ad1457" data-original="#AD1457" class="" style="fill:#F5A780" data-old_color="#AD1457"/><path d="m335.363281 17.542969c-23.636719 2.988281-47.1875 8.875-64.339843 25.089843-13.441407 13.289063-21.90625 30.792969-23.980469 49.578126-.339844 1.960937-.597657 3.925781-.851563 5.972656.136719 18.992187-15.144531 34.5-34.132812 34.644531-6.792969.015625-13.433594-2.039063-19.03125-5.886719-4.609375 13.566406-25.769532 23.296875-40.703125 23.296875-13.484375 0-33.707031-5.804687-39.167969-17.410156-1.367188-2.984375-6.398438-1.363281-8.703125-.597656-3.539063 1.652343-7.472656 2.273437-11.351563 1.792969-11.773437-2.132813-16.808593-16.46875-17.152343-27.222657.164062-11.351562 2.421875-22.574219 6.65625-33.109375 4.089843-11.667968 10.769531-22.257812 19.542969-30.972656 2.304687-2.136719 4.609374-4.097656 7.082031-6.058594 28.585937-22.101562 65.792969-26.371094 100.609375-27.734375 37.667968-1.363281 75.382812.839844 112.640625 6.570313.144531-.011719.292969.015625.425781.085937 1.960938.253907 4.007812.511719 5.972656.851563 2.132813.34375 4.351563.683594 6.484375 1.109375zm0 0" fill="#02a9f4" data-original="#02A9F4" class="active-path" style="fill:#2492F3" data-old_color="#3BA4FA"/><path d="m428.207031 225.84375c-7.339843 132.09375-140.714843 238.589844-263.765625 270.933594-.996094-3.578125.457032-7.386719 3.582032-9.386719 61.441406-40.875 146.261718-88.492187 182.699218-153.429687 31.0625-55.125 47.703125-126.378907 10.496094-182.957032-15.023438-21.339844-36.316406-37.476562-60.925781-46.164062-17.1875-6.300782-35.0625-10.539063-53.25-12.628906 2.074219-18.785157 10.539062-36.289063 23.980469-49.578126 11.6875-10.417968 25.894531-17.59375 41.214843-20.824218 3.242188 1.109375 6.316407 2.304687 9.386719 3.585937 54.015625 23.039063 89.34375 77.996094 101.289062 133.546875 4.785157 21.957032 6.5625 44.464844 5.292969 66.902344zm0 0" fill="#00bcd4" data-original="#00BCD4" class=""/><path d="m215.300781 213.296875v59.292969c.058594 4.582031-1.707031 9.003906-4.90625 12.289062-3.203125 3.285156-7.574219 5.160156-12.160156 5.21875-4.585937-.058594-8.960937-1.933594-12.160156-5.21875-3.203125-3.285156-4.96875-7.707031-4.90625-12.289062v-59.292969" fill="#673ab7" data-original="#673AB7" class="" style="fill:#FD4F4F" data-old_color="#673AB7"/><path d="m223.832031 196.230469c0 14.140625-11.460937 25.601562-25.597656 25.601562-14.140625 0-25.601563-11.460937-25.601563-25.601562 0-14.136719 11.460938-25.597657 25.601563-25.597657 14.136719 0 25.597656 11.460938 25.597656 25.597657zm0 0" fill="#ffe0b2" data-original="#FFE0B2"/><path d="m365.488281 17.507812c-13.445312-5.6875-27.695312-9.242187-42.234375-10.535156-.109375 0-.21875.039063-.332031 0-37.515625-5.765625-75.492187-7.964844-113.425781-6.5625-36.863282 1.464844-75.160156 6.058594-105.496094 29.53125-2.671875 2.066406-5.234375 4.269532-7.679688 6.597656-9.765624 9.582032-17.191406 21.28125-21.710937 34.191407-4.652344 11.550781-7.070313 23.878906-7.132813 36.328125.445313 15.460937 8.0625 32.425781 24.0625 35.371094 4.878907.765624 9.871094.171874 14.433594-1.707032l1.160156-.382812.46875-.15625c9.386719 13.542968 31.273438 18.570312 44.765626 18.570312 16.914062-.21875 32.933593-7.625 44.058593-20.371094 4.980469 2.003907 10.304688 3.03125 15.675781 3.023438 22.175782-.195312 40.535157-17.296875 42.296876-39.40625 14.609374 2.097656 28.957031 5.707031 42.820312 10.765625 22.914062 8.15625 42.769531 23.15625 56.875 42.96875 42.402344 64.457031 6.570312 143.1875-10.8125 174.078125-30.035156 53.46875-94.488281 95.113281-151.363281 131.804688-9.898438 6.402343-19.523438 12.613281-28.636719 18.679687-6.816406 4.523437-9.523438 13.203125-6.484375 20.796875 2.40625 6.539062 8.644531 10.882812 15.613281 10.871094.9375-.003906 1.875-.078125 2.800782-.222656 4.214843-.671876 8.421874-1.425782 12.59375-2.269532l4.992187-1.050781c133.691406-29.121094 276.625-142.589844 284.417969-282.066406 1.265625-23.214844-.578125-46.496094-5.480469-69.222657-13.773437-64.007812-54.5-117.503906-106.246094-139.625zm-127.769531 80.640626c.136719 14.289062-11.316406 25.992187-25.601562 26.164062-5.074219.003906-10.03125-1.535156-14.207032-4.410156-2.199218-1.511719-4.976562-1.90625-7.511718-1.070313-2.53125.839844-4.527344 2.8125-5.390626 5.335938-3.203124 9.386719-20.617187 17.460937-32.625 17.460937-12.003906 0-28.097656-5.328125-31.445312-12.453125-1.964844-4.265625-6.359375-6.878906-11.050781-6.570312-2.742188.054687-5.457031.546875-8.046875 1.453125l-1.289063.425781c-1.828125.863281-3.847656 1.253906-5.871093 1.144531-6.253907-1.171875-9.878907-10.703125-10.128907-19.082031.144531-10.246094 2.207031-20.378906 6.078125-29.867187 3.613282-10.46875 9.589844-19.964844 17.457032-27.757813 2.039062-1.929687 4.171874-3.757813 6.394531-5.472656 26.511719-20.546875 61.660156-24.632813 95.699219-25.992188 26.808593-1.019531 53.660156-.164062 80.351562 2.5625-9.34375 3.964844-17.921875 9.535157-25.34375 16.460938-14.832031 14.601562-24.195312 33.855469-26.523438 54.535156 0 .058594 0 .09375-.050781.152344.003907.042969.003907.085937 0 .128906-.300781 1.945313-.632812 3.859375-.855469 5.886719-.042968.320312-.070312.644531-.074218.964844zm222.488281 127.25c-7.339843 131.414062-143.546875 238.582031-270.992187 266.351562l-4.746094.988281c-3.859375.839844-7.765625 1.433594-11.699219 1.777344 9.054688-6.027344 18.601563-12.203125 28.441407-18.550781 58.539062-37.796875 124.878906-80.632813 157.015624-137.808594 18.898438-33.585938 57.75-119.464844 10.179688-191.808594-15.980469-22.875-38.714844-40.179687-65.015625-49.496094-14.976563-5.5-30.488281-9.429687-46.277344-11.714843 2.757813-13.828125 9.664063-26.488281 19.796875-36.292969 16.402344-15.511719 39.960938-20.308594 58.878906-22.707031 7.878907 1.585937 15.582032 3.953125 22.992188 7.066406 46.769531 19.976563 83.667969 68.835937 96.296875 127.519531 4.585937 21.234375 6.3125 42.984375 5.128906 64.675782zm0 0" data-original="#000000" class="" style="fill:#000000"/><path d="m.617188 375.714844c2.988281 20.207031 27.648437 24.285156 38.171874 26.023437 19.246094 2.84375 38.644532 4.539063 58.09375 5.070313 12.664063.570312 25.484376.855468 38.46875.855468 38.21875-.066406 76.402344-2.402343 114.347657-7.007812 1.929687-.226562 3.789062-.882812 5.433593-1.921875 28.28125-17.300781 51.78125-41.410156 68.351563-70.125 2.074219-3.832031 2.089844-8.449219.042969-12.296875s-5.882813-6.414062-10.222656-6.835938c-22.265626-1.796874-44.632813-2.058593-66.933594-.792968-6.125-10.097656-15.460938-17.851563-26.515625-22.015625 2.578125-3.996094 3.957031-8.648438 3.976562-13.40625v-17.296875c5.703125 0 11.375 0 16.640625-.078125 32.871094 0 48.035156-32.339844 51.457032-49.441407.941406-4.617187-2.039063-9.125-6.65625-10.070312-4.617188-.941406-9.128907 2.039062-10.070313 6.65625-.296875 1.460938-7.679687 35.746094-34.730469 35.746094-5.46875 0-11.09375 0-16.640625.0625v-20.269532c12.101563-13.722656 11.234375-34.546874-1.972656-47.210937-13.203125-12.664063-34.046875-12.664063-47.253906 0-13.203125 12.664063-14.074219 33.488281-1.972657 47.210937v20.949219c-33.363281 2.476563-68.265624 9.386719-68.265624 34.792969 0 4.710938 3.820312 8.53125 8.53125 8.53125 4.714843 0 8.535156-3.820312 8.535156-8.53125 0-5.230469 6.921875-14.167969 51.199218-17.664062v16.613281c.015626 4.753906 1.386719 9.40625 3.960938 13.40625-14.316406 5.597656-25.667969 16.886719-31.34375 31.171875-64.71875 8.953125-124.84375 24.226562-140.355469 43.792968-3.363281 3.871094-4.9140622 8.992188-4.269531 14.082032zm189.082031-146.5625c5.574219 1.617187 11.492187 1.617187 17.066406 0v44.109375c0 4.714843-3.820313 8.535156-8.53125 8.535156-4.714844 0-8.535156-3.820313-8.535156-8.535156zm8.535156-49.988282c9.425781 0 17.066406 7.640626 17.066406 17.066407s-7.640625 17.066406-17.066406 17.066406-17.066406-7.640625-17.066406-17.066406 7.640625-17.066407 17.066406-17.066407zm0 120.851563c9.964844-.378906 19.683594 3.171875 27.058594 9.886719-9.425781.660156-18.917969 1.398437-28.476563 2.210937-10.050781.855469-20.242187 1.863281-30.429687 3.03125 7.417969-10.050781 19.371093-15.730469 31.847656-15.128906zm-58.378906 35.746094c-.867188 4.640625-1.320313 9.347656-1.355469 14.070312 0 4.710938 3.820312 8.53125 8.535156 8.53125 4.710938 0 8.53125-3.820312 8.53125-8.53125.152344-5.589843.960938-11.144531 2.414063-16.546875 12.613281-1.582031 26.035156-2.976562 40.261719-4.179687 12.777343-1.066407 25.417968-1.976563 37.921874-2.730469 2.878907 7.5 4.476563 15.429688 4.734376 23.457031 0 4.710938 3.820312 8.53125 8.535156 8.53125 4.710937 0 8.53125-3.820312 8.53125-8.53125-.089844-8.28125-1.414063-16.5-3.933594-24.386719 17.097656-.765624 34.21875-.59375 51.296875.511719-14.984375 23.378907-34.972656 43.136719-58.523437 57.855469-49.476563 6.050781-99.363282 8.046875-149.164063 5.972656-18.765625-.511718-37.488281-2.132812-56.0625-4.855468-6.21875-1.023438-22.664063-3.746094-24.046875-11.511719 2.355469-8.796875 44.363281-26.265625 122.324219-37.65625zm0 0" data-original="#000000" class="" style="fill:#000000"/></g> </svg>
